<?xml version="1.0" encoding="UTF-8" standalone="no"?>
<!-- Created with Inkscape (http://www.inkscape.org/) -->

<svg
   width="50"
   height="50"
   viewBox="0 0 13.229166 13.229167"
   version="1.1"
   id="svg1"
   xmlns="http://www.w3.org/2000/svg"
   xmlns:svg="http://www.w3.org/2000/svg">
  <defs
     id="defs1" />
  <g
     id="layer1">
    <g
       id="g6"
       style="fill:#ffffff;fill-opacity:1;stroke:#000000;stroke-width:0.3;stroke-dasharray:none;stroke-opacity:1">
      <path
         id="rect2-1"
         style="fill:#ffffff;fill-opacity:1;stroke:#000000;stroke-width:0.24979;stroke-dasharray:none;stroke-opacity:1"
         d="m 5.9348247,11.16367 a 2.6908722,2.6908722 0 0 1 -2.3209046,1.328691 2.6908722,2.6908722 0 0 1 -0.4203789,-0.0327 v 0.580871 H 9.837421 v -0.580871 a 2.6908722,2.6908722 0 0 1 -0.4195182,0.0327 2.6908722,2.6908722 0 0 1 -2.3204744,-1.328691 z" />
      <rect
         style="fill:#ffffff;fill-opacity:1;stroke:#000000;stroke-width:0.3;stroke-dasharray:none;stroke-opacity:1"
         id="rect2"
         width="7.9791927"
         height="0.9660781"
         x="2.5258849"
         y="12.102101" />
      <g
         id="g5"
         transform="matrix(0.52873139,0,0,0.52873139,3.8581218,10.302506)"
         style="fill:#ffffff;fill-opacity:1;stroke-width:0.567396;stroke-dasharray:none">
        <path
           id="path1"
           style="fill:#ffffff;fill-opacity:1;stroke:#000000;stroke-width:0.567396;stroke-dasharray:none"
           d="m -6.5434949,-4.866256 a 6.4175186,3.2202601 0 0 0 -0.4886683,1.2316001 6.4175186,3.2202601 0 0 0 6.41752377,3.2203035 6.4175186,3.2202601 0 0 0 5.76056513,-1.8003345 6.4175186,3.2202601 84.485018 0 0 0.1537507,-0.1693108 6.4175186,3.2202601 84.485018 0 0 1.2383758,-5.906923 6.4175186,3.2202601 84.485018 0 0 -3.8221597,-6.0783273 6.4175186,3.2202601 84.485018 0 0 -2.58827822,6.6970556 6.4175186,3.2202601 84.485018 0 0 0.11064888,0.846404 6.4175186,3.2202601 0 0 0 -0.85312009,-0.028792 6.4175186,3.2202601 0 0 0 -5.92863797,1.9883244 z"
           transform="rotate(47.757491)" />
        <path
           id="path2"
           style="fill:#ffffff;fill-opacity:1;stroke:#000000;stroke-width:0.567396;stroke-dasharray:none"
           d="m 7.830399,-10.085541 a 2.6682275,2.7171768 0 0 0 -2.668046,-2.717063 2.6682275,2.7171768 0 0 0 -2.668378,2.717063 2.6682275,2.7171768 0 0 0 0.38782,1.4105273 2.6682275,2.7171768 0 0 0 0.0013,0.0023 l 2.279232,4.6449039 2.279232,-4.6449039 a 2.6682275,2.7171768 0 0 0 0.0013,-0.0023 2.6682275,2.7171768 0 0 0 0.38749,-1.4105273 z" />
        <g
           id="g4"
           transform="matrix(0.81818182,0,0,0.81818182,10.380111,-2.1579925)"
           style="fill:#ffffff;fill-opacity:1;stroke-width:0.693484;stroke-dasharray:none">
          <path
             style="fill:#ffffff;fill-opacity:1;stroke:#000000;stroke-width:0.693484;stroke-dasharray:none"
             d="m -6.3945163,-11.362918 v -5.888475"
             id="path3" />
          <path
             style="fill:#ffffff;fill-opacity:1;stroke:#000000;stroke-width:0.693484;stroke-dasharray:none"
             d="M -4.1403344,-15.181226 H -8.6947022"
             id="path4" />
        </g>
      </g>
    </g>
  </g>
</svg>
