<?xml version="1.0" encoding="UTF-8" standalone="no"?>
<!-- Created with Inkscape (http://www.inkscape.org/) -->

<svg
   width="50"
   height="50"
   viewBox="0 0 13.229165 13.229165"
   version="1.1"
   id="svg1"
   xmlns="http://www.w3.org/2000/svg"
   xmlns:svg="http://www.w3.org/2000/svg">
  <defs
     id="defs1" />
  <g
     id="layer1">
    <g
       id="g18"
       transform="translate(-0.46409809,-0.74711225)"
       style="fill:#000000;fill-opacity:1;stroke:#4c4c4c;stroke-opacity:1">
      <path
         id="path17"
         style="fill:#000000;fill-opacity:1;stroke:#000000;stroke-width:0.3;stroke-dasharray:none;stroke-opacity:1"
         d="m 7.486465,1.3064908 c -0.5967342,0 -1.0994917,0.414795 -1.3108897,0.814519 C 5.9641774,2.5207336 5.8958883,3.9423928 5.6963825,4.3196296 5.496877,4.6968667 4.1828538,5.9715384 3.9164547,6.4950232 3.6500554,7.018508 2.66967,8.5074388 3.9377309,8.4260081 4.9633775,8.3601411 6.4564156,6.8485161 7.2151967,6.1313138 c 0.05054,0.1873638 0.0793,0.4004454 0.0793,0.6429578 0,1.9310772 -2.3442246,4.3040114 -2.3442246,5.7465034 0,0.119016 0.00804,0.232257 0.023211,0.339426 h 4.5520895 c -0.00942,-0.112961 -0.014506,-0.233824 -0.014506,-0.362653 0,-2.000875 3.0047484,-4.5598939 3.0047484,-6.397907 0,-1.6726256 -2.364494,-3.9618574 -3.7537591,-4.3602885 L 8.5091621,1.5276727 c 0,0 -0.4259629,-0.2211819 -1.0226971,-0.2211819 z" />
      <rect
         style="fill:#000000;fill-opacity:1;stroke:#000000;stroke-width:0.3;stroke-dasharray:none;stroke-opacity:1"
         id="rect2"
         width="7.9791927"
         height="0.9660781"
         x="3.2599313"
         y="12.860201" />
    </g>
  </g>
</svg>
