<?xml version="1.0" encoding="UTF-8" standalone="no"?>
<!-- Created with Inkscape (http://www.inkscape.org/) -->

<svg
   width="50"
   height="50"
   viewBox="0 0 13.229166 13.229167"
   version="1.1"
   id="svg1"
   xmlns="http://www.w3.org/2000/svg"
   xmlns:svg="http://www.w3.org/2000/svg">
  <defs
     id="defs1" />
  <g
     id="layer1">
    <rect
       style="fill:#000000;fill-opacity:1;stroke:#000000;stroke-width:0.299;stroke-dasharray:none;stroke-opacity:1"
       id="rect2"
       width="7.9791927"
       height="0.9660781"
       x="2.5098829"
       y="12.113588" />
    <path
       id="rect4"
       style="fill:#000000;fill-opacity:1;stroke:#000000;stroke-width:0.299;stroke-dasharray:none;stroke-opacity:1"
       d="m 3.8403975,3.2355351 a 10.383831,10.383831 0 0 1 0.996572,4.4389386 10.383831,10.383831 0 0 1 -0.996572,4.4391143 h 5.318163 A 10.383831,10.383831 0 0 1 8.1618123,7.6744737 10.383831,10.383831 0 0 1 9.1585605,3.2355351 Z" />
    <path
       id="path4"
       style="fill:#000000;fill-opacity:1;stroke:#000000;stroke-width:0.312931;stroke-dasharray:none;stroke-opacity:1"
       d="m 6.4995699,0.13346364 a 3.540545,2.3249261 0 0 0 -0.2814823,0.007356 L 5.6616291,1.7274201 5.1630423,0.30554027 A 3.540545,2.3249261 0 0 0 4.3833155,0.59450086 L 3.9860898,1.7274201 3.7335433,1.0071407 A 3.540545,2.3249261 0 0 0 2.9589531,2.4584523 3.540545,2.3249261 0 0 0 6.4995699,4.783441 3.540545,2.3249261 0 0 0 10.040015,2.4584523 3.540545,2.3249261 0 0 0 9.2655965,1.0071389 L 9.0130501,1.7274184 8.6158244,0.59449912 a 3.540545,2.3249261 0 0 0 -1.713e-4,0 A 3.540545,2.3249261 0 0 0 7.8359263,0.30553853 L 7.3373394,1.7274184 6.7810522,0.14082232 a 3.540545,2.3249261 0 0 0 -0.2814823,-0.007356 z" />
  </g>
</svg>
